<svg style="clip-rule:evenodd;fill-rule:evenodd;stroke-linejoin:round;stroke-miterlimit:2" version="1.1" viewBox="0 0 48 48" xmlns="http://www.w3.org/2000/svg">
 <g transform="scale(.75)">
  <rect x="23.766" y="43.974" width="16.469" height="14.116" style="fill:url(#_Linear1)"/>
 </g>
 <g transform="scale(.75)">
  <rect x="18.345" y="58.063" width="27.31" height="1.72" style="fill:rgb(97,94,94)"/>
 </g>
 <g transform="scale(.75)">
  <rect x="18.345" y="59.783" width="27.31" height="1.384" style="fill:rgb(94,111,145)"/>
 </g>
 <g transform="scale(.75)">
  <rect x="1.414" y="6.002" width="61.171" height="41.333" style="fill:url(#_Linear2)"/>
 </g>
 <g transform="scale(.75)">
  <rect x="2.804" y="7.173" width="58.392" height="38.76" style="fill:url(#_Linear3)"/>
 </g>
 <g transform="scale(.75)">
  <path d="m37.927 18.428c0-1.513-1.228-2.742-2.741-2.742h-14.643c-1.513 0-2.742 1.229-2.742 2.742v13.732c0 1.513 1.229 2.742 2.742 2.742h14.643c1.513 0 2.741-1.229 2.741-2.742v-13.732z" style="fill:rgb(225,225,225)"/>
 </g>
 <g transform="scale(.75)">
  <path d="m38.818 26.053c-0.223-0.189-0.351-0.467-0.351-0.759s0.128-0.57 0.351-0.759c1.679-1.433 5.339-4.555 7.478-6.38 0.296-0.252 0.712-0.31 1.066-0.146 0.353 0.163 0.58 0.516 0.58 0.906v12.758c0 0.389-0.227 0.743-0.58 0.906-0.354 0.163-0.77 0.106-1.066-0.147-2.139-1.824-5.799-4.946-7.478-6.379z" style="fill:rgb(225,225,225)"/>
 </g>
 <defs>
  <linearGradient id="_Linear1" x2="1" gradientTransform="matrix(6.25629e-16,-10.2173,10.2173,6.25629e-16,1379.89,56.3225)" gradientUnits="userSpaceOnUse">
   <stop style="stop-color:rgb(42,42,42)" offset="0"/>
   <stop style="stop-color:rgb(91,91,91)" offset="1"/>
  </linearGradient>
  <linearGradient id="_Linear2" x2="1" gradientTransform="matrix(.0887097 -41.2337 41.2337 .0887097 774.615 49.0873)" gradientUnits="userSpaceOnUse">
   <stop style="stop-color:rgb(45,45,47)" offset="0"/>
   <stop style="stop-color:rgb(103,103,103)" offset="1"/>
  </linearGradient>
  <linearGradient id="_Linear3" x2="1" gradientTransform="matrix(1.71788e-15,-28.0551,28.0551,1.71788e-15,2027.48,41.0796)" gradientUnits="userSpaceOnUse">
   <stop style="stop-color:rgb(182,58,40)" offset="0"/>
   <stop style="stop-color:rgb(219,141,106)" offset="1"/>
  </linearGradient>
 </defs>
</svg>
